<svg xmlns="http://www.w3.org/2000/svg" viewBox="0 0 1600 1000" role="img" aria-label="Peaceful nature landscape">
  <defs>
    <linearGradient id="sky" x1="0" y1="0" x2="0" y2="1">
      <stop offset="0%" stop-color="#6cb7d8"/>
      <stop offset="60%" stop-color="#8ed0d4"/>
      <stop offset="100%" stop-color="#bfdcb2"/>
    </linearGradient>
    <radialGradient id="sun" cx="0.77" cy="0.2" r="0.18">
      <stop offset="0%" stop-color="#ffe6a3" stop-opacity="0.85"/>
      <stop offset="100%" stop-color="#ffe6a3" stop-opacity="0"/>
    </radialGradient>
    <linearGradient id="hillFar" x1="0" y1="0" x2="1" y2="0">
      <stop offset="0%" stop-color="#76b88e"/>
      <stop offset="100%" stop-color="#68a97d"/>
    </linearGradient>
    <linearGradient id="hillNear" x1="0" y1="0" x2="1" y2="0">
      <stop offset="0%" stop-color="#4f9169"/>
      <stop offset="100%" stop-color="#3f7b59"/>
    </linearGradient>
    <linearGradient id="water" x1="0" y1="0" x2="1" y2="0">
      <stop offset="0%" stop-color="#4da9bd" stop-opacity="0.72"/>
      <stop offset="100%" stop-color="#6dbec8" stop-opacity="0.55"/>
    </linearGradient>
  </defs>

  <rect width="1600" height="1000" fill="url(#sky)"/>
  <rect width="1600" height="1000" fill="url(#sun)"/>

  <path d="M0 600 C260 530 490 650 780 590 C1010 540 1240 635 1600 560 L1600 1000 L0 1000 Z" fill="url(#hillFar)"/>
  <path d="M0 700 C180 620 420 760 730 700 C980 650 1230 760 1600 690 L1600 1000 L0 1000 Z" fill="url(#hillNear)"/>
  <path d="M0 745 C210 700 450 780 760 740 C1020 705 1280 780 1600 730 L1600 1000 L0 1000 Z" fill="url(#water)"/>

  <g opacity="0.18" fill="#ffffff">
    <ellipse cx="260" cy="190" rx="120" ry="34"/>
    <ellipse cx="420" cy="170" rx="95" ry="28"/>
    <ellipse cx="1180" cy="160" rx="130" ry="34"/>
  </g>
</svg>
