<svg xmlns="http://www.w3.org/2000/svg" viewBox="0 0 1600 1000" role="img" aria-label="Warm dawn landscape">
  <defs>
    <linearGradient id="sky" x1="0" y1="0" x2="0" y2="1">
      <stop offset="0%" stop-color="#ffb88d"/>
      <stop offset="55%" stop-color="#ffd8a8"/>
      <stop offset="100%" stop-color="#f6e4b8"/>
    </linearGradient>
    <linearGradient id="mountA" x1="0" y1="0" x2="1" y2="0">
      <stop offset="0%" stop-color="#d77f58"/>
      <stop offset="100%" stop-color="#c46f4d"/>
    </linearGradient>
    <linearGradient id="mountB" x1="0" y1="0" x2="1" y2="0">
      <stop offset="0%" stop-color="#b85f48"/>
      <stop offset="100%" stop-color="#9f5340"/>
    </linearGradient>
    <radialGradient id="sun" cx="0.75" cy="0.22" r="0.2">
      <stop offset="0%" stop-color="#fff1c6" stop-opacity="0.95"/>
      <stop offset="100%" stop-color="#fff1c6" stop-opacity="0"/>
    </radialGradient>
  </defs>
  <rect width="1600" height="1000" fill="url(#sky)"/>
  <rect width="1600" height="1000" fill="url(#sun)"/>
  <path d="M0 600 C260 490 470 690 760 600 C990 530 1230 650 1600 560 L1600 1000 L0 1000 Z" fill="url(#mountA)"/>
  <path d="M0 710 C230 620 430 790 760 715 C1030 650 1290 790 1600 700 L1600 1000 L0 1000 Z" fill="url(#mountB)"/>
  <g opacity="0.24" fill="#fff7e0">
    <ellipse cx="300" cy="180" rx="120" ry="30"/>
    <ellipse cx="460" cy="165" rx="90" ry="24"/>
  </g>
</svg>
